<?xml version="1.0" standalone="no"?>
<!DOCTYPE svg PUBLIC "-//W3C//DTD SVG 20010904//EN"
 "http://www.w3.org/TR/2001/REC-SVG-20010904/DTD/svg10.dtd">
<svg version="1.0" xmlns="http://www.w3.org/2000/svg"
 width="848.000000pt" height="848.000000pt" viewBox="0 0 848.000000 848.000000"
 preserveAspectRatio="xMidYMid meet">
<metadata>
Created by potrace 1.14, written by Peter Selinger 2001-2017
</metadata>
<g transform="translate(0.000000,848.000000) scale(0.100000,-0.100000)"
fill="#000000" stroke="none">
<path d="M2415 8468 c-566 -57 -1126 -354 -1487 -790 -241 -290 -415 -648
-484 -998 -44 -220 -44 -231 -44 -1980 0 -1751 0 -1758 44 -1982 68 -346 231
-703 457 -1004 89 -119 264 -302 389 -406 201 -169 483 -334 725 -423 226 -83
428 -122 785 -150 107 -8 395 -31 640 -50 245 -19 594 -46 775 -60 182 -14
499 -39 705 -55 206 -16 524 -41 705 -56 352 -27 467 -27 679 2 751 104 1387
627 1634 1345 76 221 112 452 112 729 0 102 7 250 15 330 12 120 14 432 15
1781 0 1082 -4 1672 -11 1745 -43 449 -224 879 -517 1232 -367 443 -922 735
-1506 791 -136 14 -3499 13 -3631 -1z m2190 -1671 c338 -54 625 -161 870 -326
435 -291 717 -763 811 -1356 24 -155 30 -557 10 -727 -35 -306 -103 -537 -230
-786 -257 -501 -698 -834 -1276 -961 -201 -45 -229 -46 -1040 -46 l-775 0 -67
26 c-161 63 -284 169 -356 307 -83 160 -77 11 -77 1777 l0 1570 23 75 c55 176
179 324 333 399 150 72 135 70 949 67 605 -2 742 -6 825 -19z"/>
<path d="M3799 5701 c-47 -15 -69 -31 -84 -61 -13 -26 -15 -141 -13 -950 l3
-920 33 -32 32 -33 308 0 c305 1 308 1 395 28 362 112 560 390 599 839 25 296
-31 574 -154 765 -117 180 -293 302 -501 348 -82 18 -573 31 -618 16z"/>
</g>
</svg>
