<svg width="124" height="158" viewBox="0 0 124 158" fill="none" xmlns="http://www.w3.org/2000/svg">
<path d="M25.0599 124.234V101.168C25.0599 99.75 24.5652 98.3813 23.6725 97.3426L1.38919 71.3249C-0.191511 69.4795 -0.453075 66.7299 0.758038 64.5791L35.0104 3.5799C36.7844 0.414764 40.8669 -0.0923936 43.2721 2.54726L121.756 88.7392C123.586 90.7495 123.763 93.9024 122.171 96.1327L80.2651 154.798C78.2693 157.596 74.3972 157.761 72.1967 155.146L49.8166 128.578C48.5715 127.1 46.6951 126.434 44.8756 126.831L31.3714 129.77C28.1076 130.485 25.0599 127.809 25.0599 124.234Z" fill="url(#paint0_linear_13_11)"/>
<defs>
<linearGradient id="paint0_linear_13_11" x1="95.2135" y1="-71.8878" x2="-27.7347" y2="45.3927" gradientUnits="userSpaceOnUse">
<stop offset="0.185033" stop-color="#FF2965"/>
<stop offset="1" stop-color="#FF618D"/>
</linearGradient>
</defs>
</svg>
